<svg xmlns="http://www.w3.org/2000/svg" viewBox="0 0 100 100" fill="#0d7d2d">
  <!-- Simplified Saudi Emblem -->
  <g transform="translate(50,50)">
    <!-- Palm Tree -->
    <path d="M-2,-30 L-2,20 L2,20 L2,-30 Z" fill="#8B4513"/>
    <!-- Palm Fronds -->
    <path d="M-15,-25 Q-2,-30 -2,-25 Q-2,-30 10,-20 Q0,-25 -2,-25 Q0,-25 -15,-25 Z" fill="#228B22"/>
    <path d="M-10,-35 Q-2,-30 5,-35 Q-2,-30 -10,-35 Z" fill="#228B22"/>
    <path d="M-5,-40 Q-2,-35 8,-38 Q-2,-35 -5,-40 Z" fill="#228B22"/>
    
    <!-- Crossed Swords -->
    <g transform="rotate(45)">
      <rect x="-25" y="-1" width="50" height="2" fill="#C0C0C0"/>
      <circle cx="-25" cy="0" r="3" fill="#FFD700"/>
      <rect x="-28" y="-2" width="6" height="4" fill="#8B4513"/>
    </g>
    <g transform="rotate(-45)">
      <rect x="-25" y="-1" width="50" height="2" fill="#C0C0C0"/>
      <circle cx="-25" cy="0" r="3" fill="#FFD700"/>
      <rect x="-28" y="-2" width="6" height="4" fill="#8B4513"/>
    </g>
  </g>
</svg>